<?xml version="1.0" encoding="UTF-8" standalone="no"?>
<!DOCTYPE svg PUBLIC "-//W3C//DTD SVG 1.1//EN" "http://www.w3.org/Graphics/SVG/1.1/DTD/svg11.dtd">
<svg width="100%" height="100%" viewBox="0 0 1650 1650" version="1.1" xmlns="http://www.w3.org/2000/svg" xmlns:xlink="http://www.w3.org/1999/xlink" xml:space="preserve" xmlns:serif="http://www.serif.com/" style="fill-rule:evenodd;clip-rule:evenodd;stroke-linejoin:round;stroke-miterlimit:2;">
    <g transform="matrix(4.16667,0,0,4.16667,825,66.6667)">
        <path d="M0,364C-100.355,364 -182,282.355 -182,182C-182,81.645 -100.355,0 0,0C100.355,0 182,81.645 182,182C182,182.042 181.998,182.085 181.998,182.127C180.634,179.667 178.013,178 175,178L-173,178C-177.418,178 -181,181.582 -181,186C-181,190.418 -177.418,194 -173,194L175,194C177.881,194 180.398,192.472 181.807,190.188C177.51,286.757 97.611,364 0,364M0,-16C-109.178,-16 -198,72.822 -198,182C-198,291.178 -109.178,380 0,380C109.178,380 198,291.178 198,182C198,72.822 109.178,-16 0,-16" style="fill:rgb(162,113,40);fill-rule:nonzero;"/>
    </g>
    <g transform="matrix(4.16667,0,0,4.16667,329.822,1399.87)">
        <path d="M0,-105.126C-3.125,-108.25 -8.189,-108.25 -11.314,-105.126C-14.438,-102.002 -14.438,-96.937 -11.314,-93.813L83.279,0.782C84.842,2.343 86.889,3.124 88.937,3.124C90.984,3.124 93.031,2.343 94.594,0.782C97.718,-2.343 97.718,-7.408 94.594,-10.533L0,-105.126Z" style="fill:rgb(162,113,40);fill-rule:nonzero;"/>
    </g>
    <g transform="matrix(4.16667,0,0,4.16667,520.662,1399.87)">
        <path d="M0,-105.126C-3.125,-108.25 -8.189,-108.25 -11.314,-105.126C-14.438,-102.002 -14.438,-96.937 -11.314,-93.813L83.279,0.782C84.842,2.343 86.889,3.124 88.937,3.124C90.984,3.124 93.031,2.343 94.594,0.782C97.718,-2.343 97.718,-7.408 94.594,-10.533L0,-105.126Z" style="fill:rgb(162,113,40);fill-rule:nonzero;"/>
    </g>
    <g transform="matrix(4.16667,0,0,4.16667,711.507,1399.87)">
        <path d="M0,-105.126C-3.125,-108.25 -8.189,-108.25 -11.314,-105.126C-14.438,-102.002 -14.438,-96.937 -11.314,-93.813L83.279,0.782C84.842,2.343 86.889,3.124 88.937,3.124C90.984,3.124 93.031,2.343 94.594,0.782C97.718,-2.343 97.718,-7.408 94.594,-10.533L0,-105.126Z" style="fill:rgb(162,113,40);fill-rule:nonzero;"/>
    </g>
    <g transform="matrix(4.16667,0,0,4.16667,902.348,1399.87)">
        <path d="M0,-105.126C-3.125,-108.25 -8.189,-108.25 -11.314,-105.126C-14.438,-102.002 -14.438,-96.937 -11.314,-93.813L83.279,0.782C84.842,2.343 86.889,3.124 88.937,3.124C90.984,3.124 93.031,2.343 94.594,0.782C97.718,-2.343 97.718,-7.408 94.594,-10.533L0,-105.126Z" style="fill:rgb(162,113,40);fill-rule:nonzero;"/>
    </g>
    <g transform="matrix(4.16667,0,0,4.16667,1162.5,658.333)">
        <path d="M0,-40C11.028,-40 20,-31.028 20,-20C20,-8.972 11.028,0 0,0C-11.028,0 -20,-8.972 -20,-20C-20,-31.028 -11.028,-40 0,-40M0,16C19.851,16 36,-0.149 36,-20C36,-39.851 19.851,-56 0,-56C-19.851,-56 -36,-39.851 -36,-20C-36,-0.149 -19.851,16 0,16" style="fill:rgb(162,113,40);fill-rule:nonzero;"/>
    </g>
    <g transform="matrix(4.16667,0,0,4.16667,662.5,643.383)">
        <path d="M0,-105.824C17.508,-83.931 40,-50.709 40,-35.412C40,-13.356 22.056,4.588 0,4.588C-22.056,4.588 -40,-13.356 -40,-35.412C-40,-50.709 -17.508,-83.931 0,-105.824M0,20.588C30.879,20.588 56,-4.533 56,-35.412C56,-64.035 11.204,-117.581 6.097,-123.592C4.576,-125.381 2.348,-126.412 0,-126.412C-2.348,-126.412 -4.576,-125.381 -6.097,-123.592C-11.204,-117.581 -56,-64.035 -56,-35.412C-56,-4.533 -30.879,20.588 0,20.588" style="fill:rgb(162,113,40);fill-rule:nonzero;"/>
    </g>
</svg>
