<?xml version="1.0" encoding="UTF-8"?>
<svg xmlns="http://www.w3.org/2000/svg" version="1.2" viewBox="0 0 708 624" width="708" height="624">
  <title>LOGO-OF</title>
  <style>
		.s0 { fill: #ceb86a } 
	</style>
  <g id="Capa 1">
    <g id="&lt;Group&gt;">
      <path id="&lt;Path&gt;" class="s0" d="m185.1 205.7c-10 12.6-16.1 28.5-16.1 45.9v158.9c0 20.6 16.8 37.3 37.6 37.3 20.7 0 37.6-16.7 37.6-37.3v-145.8z"></path>
      <path id="&lt;Path&gt;" class="s0" d="m522.1 205.7c10 12.6 16 28.5 16 45.9v158.9c0 20.6-16.8 37.3-37.5 37.3-20.8 0-37.6-16.7-37.6-37.3v-145.8z"></path>
      <path id="&lt;Path&gt;" class="s0" d="m410.1 198.9l-56.4 59.7-0.1-0.2-0.2 0.2-56.4-59.7c-29.3-29.2-76.9-29.2-106.3-0.1l127 126.2v87.2c0 19.6 16.1 35.6 35.9 35.6 19.8 0 35.9-16 35.9-35.6v-87.2l126.9-126.2c-29.3-29.1-76.9-29.1-106.3 0.1z"></path>
    </g>
  </g>
</svg>
