<?xml version="1.0" encoding="UTF-8"?>
<svg xmlns="http://www.w3.org/2000/svg" version="1.2" viewBox="0 0 708 624" width="708" height="624">
  <title>LOGO-OF</title>
  <style>
		.s0 { fill: #ceb86a } 
		.s1 { fill: #000000 } 
	</style>
  <g id="Capa 1">
    <g id="&lt;Group&gt;">
      <path id="&lt;Path&gt;" class="s0" d="m276.7 121.3c-4.6 5.8-7.4 13.2-7.4 21.1v73.2c0 9.5 7.8 17.2 17.3 17.2 9.6 0 17.3-7.7 17.3-17.2v-67.1z"></path>
      <path id="&lt;Path&gt;" class="s0" d="m431.9 121.3c4.6 5.8 7.4 13.2 7.4 21.1v73.2c0 9.5-7.7 17.2-17.3 17.2-9.5 0-17.3-7.7-17.3-17.2v-67.1z"></path>
      <path id="&lt;Path&gt;" class="s0" d="m380.4 118.2l-26 27.5-0.1-0.1v0.1l-26-27.5c-13.5-13.5-35.5-13.5-49-0.1l58.5 58.2v40.1c0 9.1 7.4 16.4 16.5 16.4 9.2 0 16.6-7.3 16.6-16.4v-40.1l58.4-58.2c-13.5-13.4-35.4-13.4-48.9 0.1z"></path>
    </g>
    <g id="&lt;Group&gt;">
      <path id="&lt;Compound Path&gt;" class="s1" d="m148.7 357v-89.7h20.9l26.2 68.4h1.2l26.4-68.4h20.8v89.7h-13.9v-67.2h-1.3l-25.4 67.2h-14.3l-25.5-67.2h-1.2v67.2z"></path>
      <path id="&lt;Compound Path&gt;" fill-rule="evenodd" class="s1" d="m254 323.7c0-22.3 13.4-33.6 29.5-33.6 9.5 0 16.8 3.2 22 10.6h1.3l1.2-8.9h12.7v65.2h-12.7l-1.2-10.5h-1.3c-5.1 7.6-12.4 10.9-22 10.9-16.1 0-29.5-11.5-29.5-33.7zm53.2 0c0-14.2-8.2-22-19.6-22-11.3 0-19.3 7.7-19.3 22 0 14.3 8 22.1 19.3 22.1 11.4 0 19.6-8 19.6-22.1z"></path>
      <path id="&lt;Compound Path&gt;" class="s1" d="m333 357.4v-65.6h12.7l1.2 10h1.2c4.6-6.7 11.5-10 23.5-10v13c-1.6-0.3-3.2-0.3-4.8-0.3-13.5 0-19.9 7.3-19.9 21.6v31.3z"></path>
      <path id="&lt;Path&gt;" class="s1" d="m376.3 275.9c0-5 3.6-8.6 8.5-8.6 4.9 0 8.5 3.6 8.5 8.6 0 4.9-3.6 8.5-8.5 8.5-4.9 0-8.5-3.6-8.5-8.5z"></path>
      <path id="&lt;Path&gt;" class="s1" d="m377.8 357v-65.2h13.9v65.2z"></path>
      <path id="&lt;Compound Path&gt;" fill-rule="evenodd" class="s1" d="m419.1 346.7h-1.2l-1.3 10.3h-12.6v-89.7h13.9v33.6h1.2c5.2-7.6 12.4-10.8 22-10.8 16.3 0 29.6 11.3 29.6 33.6 0 22.2-13.3 33.7-29.6 33.7-9.4 0-16.7-3.2-22-10.7zm37.4-23c0-14.3-8.1-22-19.4-22-11.3 0-19.5 7.8-19.5 22 0 14.1 8.2 22.1 19.5 22.1 11.3 0 19.4-7.8 19.4-22.1z"></path>
      <path id="&lt;Compound Path&gt;" fill-rule="evenodd" class="s1" d="m478 323.7c0-22.4 14.1-33.6 33.1-33.6 18.7 0 31.3 12.1 31.3 32.4 0 1.3-0.1 3.6-0.4 4.9h-50.1c1 12.4 8.9 19.2 19.1 19.2 6.3 0 12.2-2.8 15-8h13.8c-3.7 11.7-14.8 18.8-28.7 18.8-20.4 0-33.1-12.8-33.1-33.7zm50.1-6c-1.1-10.9-8.5-17-17.6-17-8.8 0-16.7 5.9-18.2 17z"></path>
      <path id="&lt;Compound Path&gt;" class="s1" d="m552.2 357v-89.7h13.9v89.7z"></path>
      <path id="&lt;Compound Path&gt;" class="s1" d="m140.6 465.7v-34.5l-34.3-55.6h17.3l24 39.9h1.1l24.3-39.9h16.5l-34.4 55.6v34.5z"></path>
      <path id="&lt;Compound Path&gt;" fill-rule="evenodd" class="s1" d="m242 435.8h-50.1c1 12.3 8.9 19.1 19.1 19.1 6.3 0 12.2-2.8 15-8h13.8c-3.7 11.8-14.8 18.8-28.7 18.8-20.4 0-33.1-12.7-33.1-33.7 0-22.4 14.1-33.6 33.1-33.6 18.7 0 31.3 12.1 31.3 32.4 0 1.4-0.1 3.6-0.4 5zm-13.9-9.8c-1.1-10.9-8.5-17-17.6-17-8.9 0-16.7 6-18.2 17z"></path>
      <path id="&lt;Path&gt;" class="s1" d="m209.9 375.5l-8.1 16.1h11.5l12.5-16.1z"></path>
      <path id="&lt;Compound Path&gt;" fill-rule="evenodd" class="s1" d="m267.3 455.1h-1.2l-1.2 10.6h-12.7v-90.1h13.9v33.7h1.2c5.2-7.7 12.5-10.9 22.1-10.9 16.2 0 29.5 11.4 29.5 33.6 0 22.2-13.3 33.7-29.5 33.7-9.5 0-16.8-3.2-22.1-10.6zm37.5-23.1c0-14.3-8.2-22-19.5-22-11.3 0-19.4 7.8-19.4 22 0 14.2 8.1 22.1 19.4 22.1 11.3 0 19.5-7.8 19.5-22.1z"></path>
      <path id="&lt;Compound Path&gt;" fill-rule="evenodd" class="s1" d="m326.3 432c0-22.4 14-33.6 33.1-33.6 18.7 0 31.2 12.1 31.2 32.4 0 1.4-0.1 3.6-0.3 5h-50.1c1 12.3 8.8 19.1 19.1 19.1 6.2 0 12.1-2.8 15-8h13.7c-3.6 11.8-14.7 18.8-28.6 18.8-20.5 0-33.1-12.7-33.1-33.7zm50.1-6c-1.2-10.9-8.5-17-17.6-17-8.9 0-16.8 6-18.2 17z"></path>
      <path id="&lt;Compound Path&gt;" class="s1" d="m400.5 465.7v-36.9c0-21 12-30.4 31.5-30.4 19.5 0 31.5 8.8 31.5 29.8v37.5h-13.9v-37.5c0-12.4-6.6-17.9-17.6-17.9-11.1 0-17.6 6-17.6 18.5v36.9z"></path>
      <path id="&lt;Compound Path&gt;" fill-rule="evenodd" class="s1" d="m473.3 432c0-22.4 14-33.6 33.1-33.6 18.7 0 31.3 12.1 31.3 32.4 0 1.4-0.2 3.6-0.4 5h-50.1c1 12.3 8.9 19.1 19.1 19.1 6.3 0 12.2-2.8 15-8h13.8c-3.7 11.8-14.8 18.8-28.7 18.8-20.4 0-33.1-12.7-33.1-33.7zm50.1-6c-1.1-10.9-8.5-17-17.6-17-8.9 0-16.7 6-18.2 17z"></path>
      <path id="&lt;Compound Path&gt;" class="s1" d="m545.2 446.5c0-0.5 0-1.1 0.1-1.6h13.8v0.6c0 5.2 5 9.4 14.7 9.4 9.3 0 14.8-2.9 14.8-9.1 0-13.4-42.6-1-42.6-27.3 0-11.8 10.1-20.1 27.5-20.1 19.1 0 27.6 8.5 27.6 19.4v1.4h-13.7v-0.8c0-5.1-4.2-9.4-13.9-9.4-8.8 0-13.7 3.1-13.7 9.1 0 13.8 42.6 0.9 42.6 27.3 0 11.9-9.8 20.3-28.6 20.3-20.9 0-28.6-9-28.6-19.2z"></path>
    </g>
    <g id="&lt;Group&gt;">
      <path id="&lt;Compound Path&gt;" class="s1" d="m123.1 500.7h2.8v15.4h-2.8z"></path>
      <path id="&lt;Compound Path&gt;" class="s1" d="m144.7 500.7v15.4h-2.4l-8.5-10.5v10.5h-2.8v-15.4h2.3l8.5 10.4v-10.4z"></path>
      <path id="&lt;Compound Path&gt;" class="s1" d="m152.8 503.1h-5.1v-2.4h13.1v2.4h-5.1v13h-2.9z"></path>
      <path id="&lt;Compound Path&gt;" class="s1" d="m175.3 513.7v2.4h-11.5v-15.4h11.2v2.4h-8.3v4h7.4v2.3h-7.4v4.3z"></path>
      <path id="&lt;Compound Path&gt;" fill-rule="evenodd" class="s1" d="m189.5 516.1l-3.2-4.5q-0.3 0-0.5 0h-3.5v4.5h-2.9v-15.4h6.4c4 0 6.5 2 6.5 5.4 0 2.4-1.2 4.1-3.3 4.9l3.6 5.1zm-3.9-13h-3.3v6.1h3.3c2.5 0 3.8-1.1 3.8-3.1 0-1.9-1.3-3-3.8-3z"></path>
      <path id="&lt;Compound Path&gt;" class="s1" d="m210.1 500.7v15.4h-2.4l-8.5-10.5v10.5h-2.8v-15.4h2.3l8.5 10.4v-10.4z"></path>
      <path id="&lt;Compound Path&gt;" fill-rule="evenodd" class="s1" d="m225.1 512.5h-7.7l-1.6 3.6h-2.9l6.9-15.4h2.8l7 15.4h-3zm-0.9-2.3l-2.9-6.7-2.9 6.7z"></path>
      <path id="&lt;Compound Path&gt;" class="s1" d="m234.8 503.1h-5.1v-2.4h13.1v2.4h-5.1v13h-2.9z"></path>
      <path id="&lt;Compound Path&gt;" class="s1" d="m245.8 500.7h2.9v15.4h-2.9z"></path>
      <path id="&lt;Compound Path&gt;" fill-rule="evenodd" class="s1" d="m252.6 508.4c0-4.6 3.5-8 8.3-8 4.8 0 8.3 3.4 8.3 8 0 4.5-3.5 7.9-8.3 7.9-4.8 0-8.3-3.4-8.3-7.9zm13.7 0c0-3.2-2.3-5.5-5.4-5.5-3.1 0-5.4 2.3-5.4 5.5 0 3.1 2.3 5.4 5.4 5.4 3.1 0 5.4-2.3 5.4-5.4z"></path>
      <path id="&lt;Compound Path&gt;" class="s1" d="m286.8 500.7v15.4h-2.4l-8.5-10.5v10.5h-2.8v-15.4h2.3l8.5 10.4v-10.4z"></path>
      <path id="&lt;Compound Path&gt;" fill-rule="evenodd" class="s1" d="m301.8 512.5h-7.7l-1.5 3.6h-3l6.9-15.4h2.9l6.9 15.4h-3zm-0.9-2.3l-2.9-6.7-2.9 6.7z"></path>
      <path id="&lt;Compound Path&gt;" class="s1" d="m309.2 500.7h2.8v12.9h8.1v2.5h-10.9z"></path>
      <path id="&lt;Compound Path&gt;" fill-rule="evenodd" class="s1" d="m343.8 511.9c0 2.6-2 4.2-6 4.2h-7.6v-15.4h7.2c3.7 0 5.7 1.5 5.7 4 0 1.6-0.8 2.7-2 3.4 1.6 0.5 2.7 1.8 2.7 3.8zm-10.8-9v4.3h4.1c2 0 3.1-0.8 3.1-2.2 0-1.4-1.1-2.1-3.1-2.1zm7.9 8.7c0-1.5-1.2-2.2-3.3-2.2h-4.6v4.4h4.6c2.1 0 3.3-0.7 3.3-2.2z"></path>
      <path id="&lt;Compound Path&gt;" class="s1" d="m359.3 513.7v2.4h-11.5v-15.4h11.2v2.4h-8.4v4h7.5v2.3h-7.5v4.3z"></path>
      <path id="&lt;Compound Path&gt;" fill-rule="evenodd" class="s1" d="m373.4 512.5h-7.7l-1.5 3.6h-3l7-15.4h2.8l6.9 15.4h-3zm-0.9-2.3l-2.9-6.7-2.9 6.7z"></path>
      <path id="&lt;Compound Path&gt;" class="s1" d="m380.3 509.4v-8.7h2.9v8.5c0 3.2 1.4 4.6 3.9 4.6 2.5 0 3.9-1.4 3.9-4.6v-8.5h2.8v8.7c0 4.4-2.5 6.9-6.7 6.9-4.3 0-6.8-2.5-6.8-6.9z"></path>
      <path id="&lt;Compound Path&gt;" class="s1" d="m401.5 503.1h-5.1v-2.4h13.1v2.4h-5.1v13h-2.9z"></path>
      <path id="&lt;Compound Path&gt;" class="s1" d="m418.9 510.6v5.5h-2.8v-5.4l-6.1-10h3.1l4.5 7.5 4.5-7.5h2.9z"></path>
      <path id="&lt;Compound Path&gt;" class="s1" d="m446.2 513.7v2.4h-11.5v-15.4h11.2v2.4h-8.4v4h7.5v2.3h-7.5v4.3z"></path>
      <path id="&lt;Compound Path&gt;" class="s1" d="m459.8 516.1l-4.2-5.9-4.1 5.9h-3.3l5.8-7.9-5.5-7.5h3.3l3.9 5.4 3.9-5.4h3.1l-5.4 7.4 5.8 8z"></path>
      <path id="&lt;Compound Path&gt;" fill-rule="evenodd" class="s1" d="m478.6 506.1c0 3.4-2.5 5.5-6.5 5.5h-3.5v4.5h-2.9v-15.4h6.4c4 0 6.5 2 6.5 5.4zm-2.9 0c0-1.9-1.3-3-3.8-3h-3.3v6.1h3.3c2.5 0 3.8-1.1 3.8-3.1z"></path>
      <path id="&lt;Compound Path&gt;" class="s1" d="m493.9 513.7v2.4h-11.5v-15.4h11.2v2.4h-8.4v4h7.5v2.3h-7.5v4.3z"></path>
      <path id="&lt;Compound Path&gt;" fill-rule="evenodd" class="s1" d="m508.1 516.1l-3.2-4.5q-0.3 0-0.6 0h-3.5v4.5h-2.8v-15.4h6.3c4.1 0 6.6 2 6.6 5.4 0 2.4-1.2 4.1-3.3 4.9l3.5 5.1zm-3.8-13h-3.4v6.1h3.4c2.5 0 3.8-1.1 3.8-3.1 0-1.9-1.3-3-3.8-3z"></path>
      <path id="&lt;Compound Path&gt;" class="s1" d="m514.9 500.7h2.9v15.4h-2.9z"></path>
      <path id="&lt;Compound Path&gt;" class="s1" d="m534.4 513.7v2.4h-11.6v-15.4h11.3v2.4h-8.4v4h7.4v2.3h-7.4v4.3z"></path>
      <path id="&lt;Compound Path&gt;" class="s1" d="m552.1 500.7v15.4h-2.3l-8.5-10.5v10.5h-2.8v-15.4h2.3l8.5 10.4v-10.4z"></path>
      <path id="&lt;Compound Path&gt;" class="s1" d="m556.1 508.4c0-4.6 3.5-8 8.2-8 2.5 0 4.7 0.9 6.1 2.6l-1.8 1.8q-1.7-1.9-4.2-1.9c-3.1 0-5.5 2.3-5.5 5.5 0 3.1 2.4 5.4 5.5 5.4q2.5 0 4.2-1.9l1.8 1.8c-1.4 1.7-3.6 2.6-6.1 2.6-4.7 0-8.2-3.3-8.2-7.9z"></path>
      <path id="&lt;Compound Path&gt;" class="s1" d="m585.6 513.7v2.4h-11.6v-15.4h11.3v2.4h-8.4v4h7.4v2.3h-7.4v4.3z"></path>
    </g>
  </g>
</svg>
