<?xml version="1.0" encoding="UTF-8" standalone="no"?>
<!DOCTYPE svg PUBLIC "-//W3C//DTD SVG 1.1//EN" "http://www.w3.org/Graphics/SVG/1.1/DTD/svg11.dtd">
<svg width="100%" height="100%" viewBox="0 0 270 270" version="1.1" xmlns="http://www.w3.org/2000/svg" xmlns:xlink="http://www.w3.org/1999/xlink" xml:space="preserve" xmlns:serif="http://www.serif.com/" style="fill-rule:evenodd;clip-rule:evenodd;stroke-linejoin:round;stroke-miterlimit:2;">
    <g id="Capa-1" serif:id="Capa 1" transform="matrix(1,0,0,1,-548.067,-192)">
        <g transform="matrix(1,0,0,1,682.892,461.653)">
            <path d="M0,-269.653C-74.462,-269.653 -134.825,-209.29 -134.825,-134.828C-134.825,-60.363 -74.462,0 0,0C74.465,0 134.829,-60.363 134.829,-134.828C134.829,-209.29 74.465,-269.653 0,-269.653M0,-4.9C-71.755,-4.9 -129.925,-63.069 -129.925,-134.828C-129.925,-206.584 -71.755,-264.753 0,-264.753C71.759,-264.753 129.928,-206.584 129.928,-134.828C129.928,-63.069 71.759,-4.9 0,-4.9" style="fill-rule:nonzero;"/>
        </g>
        <g transform="matrix(1,0,0,1,744.459,372.783)">
            <path d="M0,-91.913L0,-88.75L13.624,-88.75L-8.392,-47.472L-31.644,-88.75L-19.539,-88.75L-19.539,-91.913L-56.685,-91.913L-56.685,-91.91L-84.055,-91.91L-104.282,-24.217L-104.555,-24.217L-123.955,-91.91L-151.474,-91.91L-151.474,-88.747L-141.154,-88.747L-141.154,-3.166L-151.474,-3.166L-151.474,0L-126.707,0L-126.707,-3.166L-137.026,-3.166L-137.026,-87.096L-136.752,-87.096L-111.023,0L-107.445,0L-80.753,-87.096L-80.476,-87.096L-80.476,-3.166L-91.073,-3.166L-91.073,0L-56.675,0L-56.675,-3.166L-67.132,-3.166L-67.132,-88.747L-56.675,-88.747L-56.675,-88.75L-46.504,-88.75L-19.95,-42.655L-19.95,-3.166L-32.06,-3.166L-32.06,-0.003L5.641,-0.003L5.641,-3.166L-6.603,-3.166L-6.603,-42.655L17.338,-88.75L28.346,-88.75L28.346,-91.913L0,-91.913Z" style="fill-rule:nonzero;"/>
        </g>
    </g>
</svg>
